# xmcd
#
# Track frame offsets: 
#        150
#        17350
#        37880
#        50067
#        71652
#        89682
#        109820
#        130662
#        147285
#        163717
#
# Disc length: 2452 seconds
#
# Revision: 1
# Processed by: cddbd v1.5.1PL0 Copyright (c) Steve Scherf et al.
# Submitted via: ExactAudioCopy v0.95a5
#
DISCID=8509920a
DTITLE=Jimmy Johnson - Johnson's Whacks
DYEAR=1979
DGENRE=
TTITLE0=The Twelve Bar Blues
TTITLE1=Ashes In My Ashtray
TTITLE2=I Stand Alone
TTITLE3=Slamminng Doors
TTITLE4=Take Five
TTITLE5=Strange How I Miss You
TTITLE6=Poor Boy's Dream
TTITLE7=I Need Some Easy Money
TTITLE8=Drivin' Nails In My Coffin
TTITLE9=Jockey Sports
EXTD=
EXTT0=
EXTT1=
EXTT2=
EXTT3=
EXTT4=
EXTT5=
EXTT6=
EXTT7=
EXTT8=
EXTT9=
PLAYORDER=
